<?xml version="1.0" encoding="UTF-8"?>
<svg width="18px" height="15px" viewBox="0 0 18 15" version="1.1" xmlns="http://www.w3.org/2000/svg" xmlns:xlink="http://www.w3.org/1999/xlink">
    <!-- Generator: sketchtool 55.2 (78181) - https://sketchapp.com -->
    <title>E973FA62-2B1A-46C3-819D-4E0ECF4E8779</title>
    <desc>Created with sketchtool.</desc>
    <g id="SxDxJ" stroke="none" stroke-width="1" fill="none" fill-rule="evenodd">
        <g id="1.-SxDxJ_Homepage_Basic" transform="translate(-1342.000000, -38.000000)" fill="#000000">
            <g id="Header">
                <g id="BG">
                    <g id="Cart" transform="translate(1342.000000, 38.000000)">
                        <path d="M14.462069,7.83125 L5.30068966,8.918125 L5.15172414,8.025 L4.33241379,3.05 L16.362,3.05 L14.462069,7.83125 Z M17.7951724,2.068125 C17.6772414,1.9 17.4848276,1.8 17.28,1.8 L4.12137931,1.8 L3.91034483,0.525 C3.86068966,0.218125 3.6,2.30926389e-14 3.30206897,2.30926389e-14 L0.620689655,2.30926389e-14 C0.279310345,2.30926389e-14 9.59232693e-14,0.28125 9.59232693e-14,0.625 C9.59232693e-14,0.96875 0.279310345,1.25 0.620689655,1.25 L2.77448276,1.25 L2.98551724,2.525 L4.47517241,11.55 C4.52482759,11.85 4.78551724,12.075 5.08965517,12.075 L14.3006897,12.075 C14.6482759,12.075 14.9213793,11.79375 14.9213793,11.45 C14.9213793,11.099375 14.6482759,10.825 14.3006897,10.825 L5.61724138,10.825 L5.50551724,10.15625 L14.9710345,9.03125 C15.1944828,9.00625 15.3931034,8.85625 15.4737931,8.64375 L17.8572414,2.65625 C17.9317241,2.4625 17.9068966,2.24375 17.7951724,2.068125 L17.7951724,2.068125 Z" id="Fill-1"></path>
                        <path d="M5.93103448,13 C5.41648276,13 5,13.42 5,13.9375 C5,14.455625 5.41648276,14.875 5.93103448,14.875 C6.44496552,14.875 6.86206897,14.455625 6.86206897,13.9375 C6.86206897,13.42 6.44496552,13 5.93103448,13" id="Fill-4"></path>
                        <path d="M12.9310345,13 C12.4171034,13 12,13.42 12,13.9375 C12,14.455625 12.4171034,14.875 12.9310345,14.875 C13.4455862,14.875 13.862069,14.455625 13.862069,13.9375 C13.862069,13.42 13.4455862,13 12.9310345,13" id="Fill-6"></path>
                    </g>
                </g>
            </g>
        </g>
    </g>
</svg>