<?xml version="1.0" encoding="UTF-8"?>
<svg width="15px" height="15px" viewBox="0 0 15 15" version="1.1" xmlns="http://www.w3.org/2000/svg" xmlns:xlink="http://www.w3.org/1999/xlink">
    <!-- Generator: sketchtool 55.2 (78181) - https://sketchapp.com -->
    <title>D0A86F28-0BFC-48DE-86EE-05A79FE8D5F7</title>
    <desc>Created with sketchtool.</desc>
    <g id="SxDxJ" stroke="none" stroke-width="1" fill="none" fill-rule="evenodd">
        <g id="1.-SxDxJ_Homepage_Basic" transform="translate(-1287.000000, -38.000000)" fill="#000000">
            <g id="Header">
                <g id="BG">
                    <g id="Search" transform="translate(1287.000000, 38.000000)">
                        <path d="M5.89285714,11.7857143 C2.63832201,11.7857143 -2.93098879e-14,9.14739228 -2.93098879e-14,5.89285714 C-2.93098879e-14,2.63832201 2.63832201,-2.93098879e-14 5.89285714,-2.93098879e-14 C9.14739228,-2.93098879e-14 11.7857143,2.63832201 11.7857143,5.89285714 C11.7817785,9.14576064 9.14576064,11.7817785 5.89285714,11.7857143 Z M5.89285714,1.07142857 C3.23005567,1.07142857 1.07142857,3.23005567 1.07142857,5.89285714 C1.07142857,8.55565862 3.23005567,10.7142857 5.89285714,10.7142857 C8.55565862,10.7142857 10.7142857,8.55565862 10.7142857,5.89285714 C10.710352,3.23168678 8.5540275,1.07536231 5.89285714,1.07142857 Z" id="Shape" fill-rule="nonzero"></path>
                        <polygon id="Rectangle" transform="translate(11.714286, 12.032143) rotate(-45.000000) translate(-11.714286, -12.032143) " points="11 9 12.4285714 9 12.4285714 15.0642857 11 15.0642857"></polygon>
                    </g>
                </g>
            </g>
        </g>
    </g>
</svg>